<?xml version="1.0" standalone="no"?>
<!DOCTYPE svg PUBLIC "-//W3C//DTD SVG 20010904//EN"
 "http://www.w3.org/TR/2001/REC-SVG-20010904/DTD/svg10.dtd">
<svg version="1.0" xmlns="http://www.w3.org/2000/svg"
 width="430.303417pt" height="468.681812pt" viewBox="0 0 430.303417 468.681812"
 preserveAspectRatio="xMidYMid meet">
<metadata>
Created by potrace 1.16, written by Peter Selinger 2001-2019
</metadata>
<g transform="translate(-212.587187,617.562351) scale(0.100000,-0.100000)"
fill="currentColor" stroke="none">
<path d="M3467 6165 c-203 -39 -394 -159 -465 -293 -17 -32 -41 -96 -53 -143
-31 -119 -70 -188 -150 -263 -86 -82 -199 -139 -329 -167 -118 -25 -186 -55
-235 -104 -109 -109 -141 -332 -75 -529 19 -57 50 -106 68 -106 4 0 61 -7 127
-15 266 -32 464 -14 652 58 178 69 405 200 477 276 31 32 56 40 56 19 0 -27
-102 -149 -172 -207 -80 -66 -222 -144 -335 -185 -131 -46 -281 -69 -460 -70
-103 -1 -162 -5 -160 -11 6 -18 63 -45 143 -67 68 -18 105 -21 269 -21 199 0
260 8 675 94 257 53 450 146 572 277 93 99 133 185 147 310 7 63 8 65 19 39
40 -96 -21 -265 -147 -408 -35 -40 -42 -57 -65 -159 -50 -226 -57 -396 -21
-560 9 -44 10 -67 3 -71 -5 -4 -33 -9 -61 -13 -120 -14 -272 -126 -326 -239
-16 -34 -33 -73 -37 -87 -6 -24 -6 -24 12 -8 47 42 174 77 174 48 0 -6 -13
-28 -29 -51 -48 -66 -88 -219 -57 -219 8 0 18 5 22 11 9 15 140 99 153 99 6 0
11 -14 11 -30 0 -66 54 -146 121 -180 60 -31 69 -28 53 18 -7 20 -13 45 -14
55 0 21 79 197 89 197 4 0 12 -5 18 -11 30 -30 136 38 173 111 34 67 35 132 3
216 -12 32 18 11 42 -29 38 -67 35 -147 -11 -257 -61 -145 -57 -265 13 -405
14 -27 34 -60 45 -72 18 -20 23 -20 42 -8 39 26 157 47 234 42 114 -7 107 -21
-17 -35 -59 -7 -135 -21 -167 -32 -152 -52 -288 -192 -344 -353 -27 -77 -38
-248 -21 -327 26 -122 130 -270 237 -337 24 -15 44 -33 44 -40 0 -6 -18 -32
-40 -58 -79 -91 -130 -208 -130 -298 l0 -50 61 7 c34 3 103 6 154 6 l92 0 7
55 c3 30 15 79 26 108 23 61 84 127 101 110 8 -8 0 -34 -30 -94 -23 -46 -47
-115 -55 -152 l-14 -68 132 6 c138 7 329 21 409 31 56 8 57 13 27 122 -11 39
-20 75 -20 80 0 4 42 13 93 19 251 31 508 155 728 353 102 91 286 296 390 433
100 132 114 168 45 115 -331 -253 -421 -314 -564 -380 -209 -97 -382 -103
-499 -19 -94 68 -163 229 -203 471 -51 304 -128 498 -276 695 -73 98 -240 257
-359 342 -118 84 -161 127 -210 208 -57 96 -79 181 -80 310 0 151 21 226 113
405 124 238 130 251 156 342 52 180 56 322 16 496 -73 311 -314 550 -639 633
-103 26 -275 33 -374 14z m357 -441 c71 -24 146 -99 185 -184 32 -68 33 -76
29 -163 -5 -99 -27 -158 -84 -226 -71 -84 -208 -116 -312 -71 -125 54 -201
214 -173 365 32 170 145 290 277 294 17 1 52 -6 78 -15z m-1538 -680 c8 -33
-26 -119 -46 -119 -18 0 -50 60 -50 93 0 13 11 34 25 48 20 20 29 23 45 14 11
-6 23 -22 26 -36z m484 6 c13 -13 20 -33 20 -56 0 -29 -7 -43 -37 -71 -46 -42
-90 -66 -109 -59 -10 4 -14 24 -14 72 0 62 2 68 34 100 39 39 76 44 106 14z
m2294 -2573 c-2 -12 -5 -83 -6 -157 -2 -109 1 -145 16 -190 62 -182 195 -254
401 -217 44 8 82 13 84 11 31 -28 -260 -104 -398 -104 -64 0 -67 1 -85 33 -48
83 -97 192 -135 300 l-42 118 35 41 c19 22 54 76 76 119 39 75 65 97 54 46z"/>
<path d="M3712 5520 c-85 -52 -96 -220 -21 -301 52 -56 131 -30 170 55 21 47
25 96 7 95 -7 0 -22 -4 -33 -8 -11 -5 -28 -4 -38 1 -22 11 -47 67 -47 102 0
32 40 60 72 51 22 -6 22 -6 4 9 -27 22 -75 20 -114 -4z"/>
<path d="M3305 4328 c-2 -7 -21 -58 -40 -113 -20 -55 -52 -143 -70 -195 l-34
-94 -77 -13 c-197 -34 -380 -163 -449 -318 -24 -54 -49 -155 -40 -163 3 -3 18
4 33 16 40 32 125 82 140 82 9 0 11 -7 7 -20 -4 -11 -1 -45 5 -75 9 -41 19
-61 46 -84 19 -17 36 -31 38 -31 2 0 2 19 -2 42 -4 35 1 52 29 105 39 72 50
76 116 37 37 -21 44 -30 39 -48 -11 -43 -28 -361 -22 -412 5 -44 2 -55 -20
-85 -43 -56 -114 -213 -129 -286 -26 -123 -16 -265 28 -368 11 -27 45 -89 74
-137 29 -47 53 -94 53 -105 -1 -29 -30 -57 -100 -96 -119 -65 -203 -169 -235
-292 -25 -96 -25 -95 54 -95 37 0 95 3 128 6 l61 7 5 45 c8 71 74 191 125 226
33 23 45 27 54 18 9 -9 5 -19 -19 -44 -48 -51 -92 -127 -113 -197 -11 -35 -20
-68 -20 -74 0 -11 217 -5 524 15 l179 11 -6 66 c-3 36 -17 104 -32 150 -28 89
-26 119 15 156 16 14 22 13 88 -25 127 -73 292 -138 430 -169 43 -9 43 -9 73
32 16 22 26 44 22 47 -5 4 -41 12 -81 19 -93 15 -242 62 -357 114 -340 153
-562 377 -669 677 -58 160 -70 244 -70 495 0 172 4 254 17 327 29 167 83 359
162 574 80 221 93 276 62 282 -9 2 -19 -2 -22 -10z"/>
</g>
</svg>
